# xmcd CD database file
# Copyright (C) 1993-1998 Ti Kan
# 
# Track frame offsets:
#     150
#     17077
#     32500
#     42542
#     68870
#     88580
#     110795
#     124012
#     146842
#     158180
#     171522
#     188127
#     221052
#     230630
#     242662
#     255130
#     267727
#     280162
#     293215
#     308460
#     319732
# 
# Disc length: 4432 seconds
# 
# Revision: 1
# Processed by: cddbd v1.4b41PL1 Copyright (c) Steve Scherf et al.
# Submitted via: DiscPlay 4.0.4
# 
DISCID=3b114e15
DTITLE=Big Joe Turner - The Blues Boss
DYEAR=1900
DGENRE=
TTITLE0=Roll 'Em Pete
TTITLE1=Cherry Red
TTITLE2=Morning Glories
TTITLE3=How Long Blues
TTITLE4=St Louis Blues
TTITLE5=Piney Brown Blues
TTITLE6=Ti-ri-lee
TTITLE7=In The Evening
TTITLE8=Midnight Cannonball
TTITLE9=Sweet Sixteen
TTITLE10=Low Down Dog
TTITLE11=Wee Baby Blues
TTITLE12=(We're Gonna) Jump For Joy
TTITLE13=Poor Lover's Blues
TTITLE14=The Chill Is On
TTITLE15=TV Mama
TTITLE16=Hollywood Bed
TTITLE17=Miss Brown Blues
TTITLE18=Chains Of Love
TTITLE19=Don't You Cry
TTITLE20=Married Woman
EXTD=
EXTT0=
EXTT1=
EXTT2=
EXTT3=
EXTT4=
EXTT5=
EXTT6=
EXTT7=
EXTT8=
EXTT9=
EXTT10=
EXTT11=
EXTT12=
EXTT13=
EXTT14=
EXTT15=
EXTT16=
EXTT17=
EXTT18=
EXTT19=
EXTT20=
PLAYORDER=
